<svg xmlns="http://www.w3.org/2000/svg" viewBox="0 0 888 624"><defs><style>.cls-1{isolation:isolate;}.cls-2,.cls-3{fill:#fff;}.cls-3,.cls-4,.cls-5{stroke:#000;stroke-miterlimit:10;}.cls-3,.cls-4{stroke-width:4px;}.cls-4{fill:#fdfeff;}.cls-6{mix-blend-mode:hard-light;}.cls-7{fill:#f5f5f5;}.cls-8{fill:#fffefd;}.cls-9{fill:#020202;}.cls-10{fill:#a7aab8;}</style></defs><title>illustration</title><g class="cls-1"><g id="Layer_1" data-name="Layer 1"><path d="M251.38,137a47.15,47.15,0,0,0,6.71,11.33l-4,8.37,8.06,6,8.06,6,6.92-6.18a47.17,47.17,0,0,0,12.75,3.28l3.09,8.74,10-1.42,10-1.42.53-9.25a47.19,47.19,0,0,0,11.33-6.71l8.37,4,6-8.06,6-8.06-6.18-6.92A47.17,47.17,0,0,0,342.36,124l8.74-3.09-1.42-10-1.42-10-9.25-.53a47.18,47.18,0,0,0-6.71-11.33l4-8.37-8.06-6-8.06-6-6.92,6.18a47.17,47.17,0,0,0-12.75-3.28l-3.09-8.74-10,1.42-10,1.42-.53,9.25a47.17,47.17,0,0,0-11.33,6.71l-8.37-4-6,8.06-6,8.06,6.18,6.92A47.16,47.16,0,0,0,248,113.39l-8.74,3.09,1.42,10,1.42,10ZM290.2,83.72a35.31,35.31,0,1,1-30,39.95A35.31,35.31,0,0,1,290.2,83.72Z"/><path d="M226.32,51.28a21.61,21.61,0,0,0,3.08,5.19l-1.83,3.84,3.7,2.77,3.7,2.77L238.13,63a21.62,21.62,0,0,0,5.85,1.5l1.42,4,4.57-.65,4.57-.65.24-4.24A21.63,21.63,0,0,0,260,59.91l3.84,1.83,2.77-3.7,2.77-3.7-2.83-3.17a21.62,21.62,0,0,0,1.5-5.85l4-1.42-.65-4.57-.65-4.57-4.24-.24a21.63,21.63,0,0,0-3.08-5.19l1.83-3.84-3.7-2.77-3.7-2.77-3.17,2.83a21.62,21.62,0,0,0-5.85-1.5l-1.42-4-4.57.65-4.57.65L238,22.82a21.62,21.62,0,0,0-5.19,3.08L229,24.06l-2.77,3.7-2.77,3.7,2.83,3.17a21.63,21.63,0,0,0-1.5,5.85l-4,1.42.65,4.57.65,4.57Zm17.8-24.41a16.19,16.19,0,1,1-13.74,18.31A16.19,16.19,0,0,1,244.12,26.88Z"/><rect class="cls-2" x="417.24" y="510.82" width="26.41" height="8.51"/><path d="M513,165.94s51.09,60.57,18.68,99.8-41.32.76-41.32.76S471,270.1,504.59,221C520.42,197.92,513,165.94,513,165.94Z"/><path d="M625,118.68s38,56-28.12,120.54-61.16,103-61.16,103S468.16,210,625,118.68Z"/><path d="M523.38,317.89c-27.72,2.5,4.44-72.45,47.75-92S651.08,208,676.41,187.31C676.41,187.31,659.89,305.57,523.38,317.89Z"/><rect x="846.14" y="251.35" width="2.33" height="244.96"/><rect x="184.08" y="221.16" width="39.76" height="6.39"/><rect x="184.08" y="232.97" width="56.4" height="6.39"/><rect class="cls-2" x="350.09" y="510.82" width="26.41" height="8.51"/><rect class="cls-2" x="517.27" y="510.82" width="26.41" height="8.51"/><path class="cls-3" d="M551.6,420.75c38.22,0,68.53-25.7,98.21-50.86,22.5-19.08,45.85-38.59,72.8-48.21,82.25-29.36,124.32,24.26,124.7,24.73V330.1c-.44-.56-8-10.3-29.66-19.61-19.77-8.47-52.94-15.23-98.69.68-29,10.08-53.06,30.49-76.34,50.23-47.22,40-88,74.62-158.84,20.45-53.65-41-104.22-80.11-154-94.39-48.67-14-99.4-3.74-146.9,43.75l.35,14.81C284.15,244.69,370,308.89,477,390.69,505.36,412.36,529.77,420.75,551.6,420.75Z"/><rect class="cls-4" x="87.92" y="342.47" width="7.98" height="34.45"/><rect class="cls-3" x="107.73" y="328.48" width="7.98" height="48.44"/><rect class="cls-3" x="127.54" y="321.18" width="7.98" height="55.74"/><rect class="cls-3" x="147.34" y="318.14" width="7.98" height="58.78"/><rect x="87.92" y="355.31" width="7.98" height="21.61"/><rect x="107.73" y="346.53" width="7.98" height="30.39"/><rect x="127.54" y="341.95" width="7.98" height="34.97"/><rect x="147.34" y="340.04" width="7.98" height="36.88"/><path class="cls-5" d="M554.39,146.32V515.57H297.23V146.32A21,21,0,0,0,280,167v344a21,21,0,0,0,21,21H550.67a21,21,0,0,0,21-21V167A21,21,0,0,0,554.39,146.32Z"/><path d="M554.39,103.52l-166,.94-41.34.17-20.66.07-10.33,0c-1.7,0-3.48,0-5.13,0a12.73,12.73,0,0,0-4.59,1,12.81,12.81,0,0,0-7.75,11c-.05.75,0,1.64,0,2.5v2.59l.07,20.72.14,41.45c.24,55.26.2,110.53.29,165.79l.18,165.79-2-2,257.16.27-1.72,1.72L553,412.83l.4-102.86Zm0,0,1,205.6.4,103.17.29,103.29v1.72h-1.73l-257.16.27h-2v-2l.18-165.79c.09-55.26,0-110.53.29-165.79l.14-41.45.07-20.72v-2.59c0-.86,0-1.7.06-2.68a15.38,15.38,0,0,1,9.38-13.09,15.22,15.22,0,0,1,5.49-1.16c1.8,0,3.49,0,5.23,0l10.4,0,20.79.07,41.56.17Z"/><rect x="454.6" y="180.66" width="75.82" height="9.59"/><rect x="454.6" y="220.86" width="69.6" height="9.59"/><rect x="454.6" y="200.76" width="60.22" height="9.59"/><path d="M373.25,242.16a59.21,59.21,0,0,1-24.68-5.32,59.72,59.72,0,1,1,49.37,0A59.21,59.21,0,0,1,373.25,242.16Zm0-116.3a56.58,56.58,0,1,0,56.57,56.57A56.64,56.64,0,0,0,373.25,125.87Z"/><rect class="cls-3" x="313.52" y="266.2" width="87.12" height="8.55"/><rect class="cls-3" x="313.52" y="289.21" width="87.12" height="8.55"/><rect class="cls-3" x="313.52" y="312.22" width="87.12" height="8.55"/><rect x="418.43" y="266.2" width="14.54" height="8.55"/><rect x="418.43" y="289.21" width="14.54" height="8.55"/><rect x="418.43" y="312.22" width="14.54" height="8.55"/><path d="M240.79,423.52c51.78,0,96.79-22.38,143.72-45.72,57.93-28.81,117.83-58.6,197.65-50.44,51,5.21,83,26,111.18,44.28,25.55,16.58,49.72,31.16,82.44,32.41,52.88,2,71.23-20.54,71.54-21.92V367.66h0c-.07.25-11.61,25.57-71.48,25.27-29.48-.15-51.24-14.27-76.44-30.61-29.28-19-62.47-40.53-116.1-46-83-8.48-144.38,22-203.73,51.55-62.1,30.88-121.36,59.84-196.29,34.72v11.9C204.62,421.62,221.7,423.52,240.79,423.52Z"/><g class="cls-6"><rect class="cls-7" x="453.72" y="257.59" width="174.07" height="264.32" rx="26.14" ry="26.14"/><path d="M601.65,521.91l-52,.08-52,.2-13,.07-3.25,0h-1.63l-1.65-.07a25.79,25.79,0,0,1-3.27-.38,16.39,16.39,0,0,1-1.61-.36c-.53-.15-1.08-.24-1.59-.43a26.73,26.73,0,0,1-11.12-6.92A26.38,26.38,0,0,1,454,502.71l-.42-1.61-.26-1.64a26.55,26.55,0,0,1-.29-3.32c-.05-2.18,0-4.34-.06-6.51l-.09-13-.19-26-.72-104-.21-52v-6.5c0-2.19-.07-4.25.1-6.65a27.9,27.9,0,0,1,4.42-13.09A28.77,28.77,0,0,1,466.45,259a29.07,29.07,0,0,1,13.42-3.42l52,.07,52,.2,13,.07,3.25,0,1.63,0,1.72.1a27,27,0,0,1,3.42.44c.57.08,1.12.27,1.67.4s1.12.27,1.66.47a27.76,27.76,0,0,1,11.45,7.34,27.23,27.23,0,0,1,6.55,11.87l.41,1.66.25,1.69a27.22,27.22,0,0,1,.25,3.4c0,2.2,0,4.34,0,6.52l-.09,13-.19,26-.72,104-.2,52v6.5c0,2.17,0,4.33-.11,6.5A26,26,0,0,1,623.59,510a26.07,26.07,0,0,1-21.94,11.89Zm0,0a27.07,27.07,0,0,0,12.46-3.18,26.78,26.78,0,0,0,9.41-8.75,25.9,25.9,0,0,0,4.11-12.16c.16-2.16.08-4.33.09-6.49v-6.5l-.2-52-.72-104-.19-26-.09-13c0-2.16,0-4.35-.06-6.48a24.53,24.53,0,0,0-.27-3.07l-.24-1.52-.39-1.49a24.38,24.38,0,0,0-6-10.56,24.72,24.72,0,0,0-10.29-6.4c-.48-.18-1-.26-1.47-.4a14.68,14.68,0,0,0-1.49-.34,23.79,23.79,0,0,0-3-.34l-1.52-.07H600.1l-3.25,0-13,.07-52,.2-52,.07a25.09,25.09,0,0,0-11.53,2.9,24.84,24.84,0,0,0-8.74,8.08,24,24,0,0,0-3.84,11.26c-.15,1.93-.09,4.2-.11,6.34v6.5l-.21,52-.72,104-.19,26-.09,13c0,2.16,0,4.34,0,6.49a25.24,25.24,0,0,0,.23,3.16l.23,1.57.38,1.54a25.23,25.23,0,0,0,6.07,11,25.75,25.75,0,0,0,10.62,6.82c.5.19,1,.29,1.54.44A15.67,15.67,0,0,0,475,521a25,25,0,0,0,3.17.41l1.6.09,1.62,0,3.25,0,13,.07,52,.2Z"/></g><path class="cls-3" d="M607.44,296.91a28.49,28.49,0,1,0-53.66,19.19c.22.6.45,1.2.7,1.78a28.49,28.49,0,0,0,53-21Zm-19.63,29.71A21.34,21.34,0,0,1,561,315q-.28-.65-.53-1.33a21.36,21.36,0,1,1,27.31,12.92Z"/><path d="M560.22,300.13,553.41,298a28.53,28.53,0,0,1,26.35-20l.21,7.13a21.4,21.4,0,0,0-19.75,15Z"/><path d="M561,315l-6.54,2.85c-.25-.58-.49-1.17-.7-1.78a28.36,28.36,0,0,1-.37-18.09l6.81,2.13a21.27,21.27,0,0,0,.28,13.56Q560.74,314.37,561,315Z"/><path d="M558.9,325a28.34,28.34,0,0,1-4.42-7.09L561,315a21.24,21.24,0,0,0,3.31,5.32Z"/><rect x="565" y="462.24" width="15.36" height="50.36"/><rect x="542.17" y="476.37" width="15.36" height="36.24"/><rect class="cls-5" x="587.15" y="438.9" width="15.36" height="73.7"/><polygon points="476.98 457.05 475.64 456.03 500.67 423.46 531.56 425.14 554.86 388.04 579.95 385.45 595.03 355.63 596.53 356.39 581.04 387.03 555.84 389.63 532.46 426.87 501.47 425.19 476.98 457.05"/><path d="M524.32,295.12H480.64a5,5,0,0,1-5-5h0a5,5,0,0,1,5-5h43.68a5,5,0,0,1,5,5h0A5,5,0,0,1,524.32,295.12Z"/><path class="cls-3" d="M524.32,312.54H480.64a5,5,0,0,1-5-5h0a5,5,0,0,1,5-5h43.68a5,5,0,0,1,5,5h0A5,5,0,0,1,524.32,312.54Z"/><path class="cls-3" d="M524.32,330H480.64a5,5,0,0,1-5-5h0a5,5,0,0,1,5-5h43.68a5,5,0,0,1,5,5h0A5,5,0,0,1,524.32,330Z"/><path class="cls-2" d="M176,417.7a33.4,33.4,0,0,1-9.84,3s-4.52-6.63-7.17-11.6c-6.31-11.84-8.18-17.39-7.64-21.94,1-8.17,17-40.88,17-40.88l17.85,6.89L172.6,377.44c-1.28,2.49-2.92,6.53-4.62,9.82-2.23,4.31.45,14.18,2,18.3C170,405.56,172.93,413.54,176,417.7Z"/><path d="M176,417.7a37.6,37.6,0,0,1-4.72,2.15,25.39,25.39,0,0,1-5.07,1.34l-.27,0-.19-.26c-2-2.74-4-5.55-5.83-8.43-.93-1.43-1.81-2.94-2.64-4.42s-1.65-3-2.46-4.51a58.07,58.07,0,0,1-4.17-9.56,19.6,19.6,0,0,1-1-5.42,12.1,12.1,0,0,1,.26-2.83,24.43,24.43,0,0,1,.62-2.64A183.52,183.52,0,0,1,158,363.95c2.76-6.24,5.63-12.41,8.6-18.56l.8-1.65,1.71.67,17.82,7,2.09.82-1.11,1.92L179,369.46l-4.5,7.65c-1.47,2.44-2.6,5.19-4,7.86l-1,2c-.16.32-.39.69-.51,1a5,5,0,0,0-.34.83,13,13,0,0,0-.45,4,42.82,42.82,0,0,0,1.23,8.57,67.69,67.69,0,0,0,2.71,8.37A46.17,46.17,0,0,0,176,417.7Zm0,0a41.39,41.39,0,0,1-4.64-7.62,58,58,0,0,1-3.44-8.29,40.31,40.31,0,0,1-1.88-8.89,15.22,15.22,0,0,1,.29-4.8,7.54,7.54,0,0,1,.43-1.25c.16-.4.31-.67.47-1l.89-2,1.75-4.07.91-2.06c.15-.33.33-.71.51-1.06l.53-1,4.21-7.83,8.54-15.61,1,2.73-17.87-6.81,2.51-1c-3,6.07-5.9,12.2-8.69,18.36a194.58,194.58,0,0,0-7.72,18.61,21.57,21.57,0,0,0-.65,2.29,9.09,9.09,0,0,0-.31,2.22,16.62,16.62,0,0,0,.63,4.62,64.81,64.81,0,0,0,3.53,9.3c1.41,3.06,2.87,6.12,4.46,9.08s3.36,5.87,5.12,8.77l-.47-.22a26.21,26.21,0,0,0,5-.85A37.33,37.33,0,0,0,176,417.7Z"/><path d="M120.25,552.42a11.82,11.82,0,0,0,1.52,6.91c2,4,11.22,14,10.59,18.16s-11.24,3.65-17.89-3.63S97.92,559,98.29,557.27s10.35-10.83,13.82-12S120.25,552.42,120.25,552.42Z"/><polygon class="cls-2" points="123.91 548.53 120.16 552.57 111.73 545.38 115.61 540.88 123.91 548.53"/><path d="M123.91,548.53a40.72,40.72,0,0,1-2.88,4.85l-.55.77-1.09-.68a76.53,76.53,0,0,1-9-6.58l-1.53-1.29,1.32-1.53c1.29-1.5,2.62-3,4-4.38l1.39-1.41,1.22,1.26a57.66,57.66,0,0,1,4,4.65c.6.77,1.14,1.54,1.66,2.26S123.51,547.88,123.91,548.53Zm0,0-5.26-3.31a51.4,51.4,0,0,1-4.28-3l2.61-.15c-1.19,1.58-2.45,3.11-3.74,4.61l-.22-2.82a76.53,76.53,0,0,1,7.91,7.8l-1.64.1C120.55,550.82,122.1,549.91,123.91,548.53Z"/><path d="M112.33,540.88c4.11-4.66,37.31-38.64,37.31-38.64,16.93-19.52,23.56-20,23.56-20a98.5,98.5,0,0,1,10.09.88c.83.12,3.55.09,4.42.23,10.78,1.75,11.08.52,7.14,9.35-6.48,14.52-71.48,56.43-71.48,56.43Z"/><path d="M264,558.59a45.17,45.17,0,0,0,10,3c4.69.64,16-1.22,19.2,1.86s-3.71,12-14.12,13.33-23.74,3.53-25,2.14-2.38-13.87-1.3-17.63S264,558.59,264,558.59Z"/><polygon class="cls-2" points="261.76 553.07 264 558.59 252.76 561.26 251.06 555.35 261.76 553.07"/><path d="M261.76,553.07c.51.66,1.08,1.42,1.65,2.28s1.18,1.78,1.73,2.78l.6,1.09-1.46.58a81.27,81.27,0,0,1-11.07,3.42l-1.86.44-.52-1.84q-.84-3-1.48-6l-.42-2,1.75-.26a57.92,57.92,0,0,1,5.88-.56A51.76,51.76,0,0,1,261.76,553.07Zm0,0-5.51,2.3c-1.68.68-3.25,1.25-4.82,1.72l1.33-2.22q1.06,2.89,1.91,5.85l-2.38-1.39a81.26,81.26,0,0,1,11.42-1.93l-.86,1.66c-.2-.85-.34-1.75-.51-2.74S262,554.25,261.76,553.07Z"/><path d="M244.89,483.32s-4.57-17.45,6.17,23.66c0,0,11.33,43.87,12.57,46.37.3.59-14.2,3.24-14.47,3.14-2.52-1-25.09-57.21-30.7-67.59C213.53,479.75,244.89,483.32,244.89,483.32Z"/><path d="M244.89,483.32l-22.56,13s-8.88-10.9-14.75-15.35l-1.82-1.39c-.87-.66-1.74-1.33-2.6-2l-1.89-1.5a88.32,88.32,0,0,1-10.53-9.45c-6.39-7.38,7.6-54,25.26-33.22C216,433.38,239.69,455.61,244.89,483.32Z"/><path d="M214.6,427.85s-11.12,51.08-22.07,68.45c0,0-18.61-6.27-27.15-9.62,0,0-.83-36.91,0-46.56C166.13,431.12,214.6,427.85,214.6,427.85Z"/><path d="M163.13,445.76s4.69-45.9.8-67.25c-2.58-14.2,1.15-37.23,9.66-49.66a30.39,30.39,0,0,1,3.21-4s17.18,4.55,18.9,5.75a35.16,35.16,0,0,1,4.46,4.7h0c4.89,6,12.11,16.85,12.81,27.39.51,7.67.93,14.71,1.41,22,.14,2.21.3,4.44.45,6.72.38,5.47.82,11.19,1.37,17.5.31,3.51,2.67,14.64,4.23,24.91Z"/><path d="M205.76,479.56c-.87-.66-1.74-1.33-2.6-2l-1.89-1.5c.9-2.88,5.8-16,7.73-25.37C209,450.68,210.41,465.28,205.76,479.56Z"/><path d="M214.85,391.37s-10,15.2-11.77-22.34l11.32,15.62C214.53,386.86,214.69,389.09,214.85,391.37Z"/><path class="cls-2" d="M176.81,324.84s1.79-9.93-.3-15.7,17.1,9.73,17.1,9.73,0,.8,0,2c0,.94.08,2.12.16,3.36a25.44,25.44,0,0,0,1.07,6.41C196.16,333.9,176.81,324.84,176.81,324.84Z"/><path d="M176.81,324.84a75.46,75.46,0,0,0-.34-9.33,24,24,0,0,0-.84-4.39,7.49,7.49,0,0,0-.33-1l-.19-.5a3.77,3.77,0,0,1-.25-.91,1.8,1.8,0,0,1,0-.33,1.9,1.9,0,0,1,0-.42,2,2,0,0,1,.56-1.06,2.07,2.07,0,0,1,1-.54,2.78,2.78,0,0,1,.71-.05,5.8,5.8,0,0,1,1.63.37,27.16,27.16,0,0,1,4.47,2.29c1.37.85,2.71,1.72,4,2.63,2.61,1.82,5.11,3.72,7.58,5.73l.73.59v2.88l.06,1.93c0,1.29.08,2.57.21,3.83a17.16,17.16,0,0,0,.6,3.51c0,.11.07.22.09.33a2.87,2.87,0,0,1,.05.46,2.35,2.35,0,0,1-.08.62,2,2,0,0,1-.34.67,1.94,1.94,0,0,1-.49.45l-.24.14-.19.08a1.89,1.89,0,0,1-.35.1l-.28,0a4.88,4.88,0,0,1-1.45-.11,16.92,16.92,0,0,1-2.1-.61,38,38,0,0,1-3.77-1.57c-1.21-.58-2.42-1.14-3.6-1.78C181.36,327.63,179,326.32,176.81,324.84Zm0,0c2.57.75,5.09,1.57,7.61,2.36s5,1.58,7.5,2.19a13.93,13.93,0,0,0,1.76.32,1.49,1.49,0,0,0,.53,0h0l-.11,0-.08,0-.14.07a1.37,1.37,0,0,0-.3.28,1.32,1.32,0,0,0-.23.45,1.11,1.11,0,0,0-.06.38.72.72,0,0,0,0,.21.31.31,0,0,0,0,.09,18.68,18.68,0,0,1-1.07-4.24c-.2-1.37-.36-2.73-.42-4.08s-.17-2.71-.18-4.07l.74,1.54c-2.42-1.91-4.9-3.82-7.36-5.68-1.24-.92-2.47-1.85-3.73-2.72a31.68,31.68,0,0,0-3.71-2.32,6.37,6.37,0,0,0-.62-.26s0,0,.12,0a1.09,1.09,0,0,0,.8-.84.77.77,0,0,0,0-.13s0,0,0,0,0,.12,0,.23l.16.62a9.88,9.88,0,0,1,.27,1.26,25.07,25.07,0,0,1,.22,4.94A38.44,38.44,0,0,1,176.81,324.84Z"/><path class="cls-2" d="M204.55,290.06s4,7.62,2,8.78c-1.68,1,1.91,8.44,2.38,9.66s-3.05,2.08-3.8,2.86-3,10.4-5.92,10.67-15.9-4.35-19.43-8.06-6.33-20.41-3.91-27.42S197.41,276.76,204.55,290.06Z"/><path d="M204.55,290.06a37.15,37.15,0,0,1,1.59,3.44,14.21,14.21,0,0,1,1,3.64,3.11,3.11,0,0,1,0,1,1.25,1.25,0,0,1-.54.84c-.44.33-.36,1.06-.28,1.64a18.18,18.18,0,0,0,1.12,3.56c.46,1.17,1,2.29,1.57,3.43l.21.43a2,2,0,0,1,.21.55,1.1,1.1,0,0,1-.14.77,1.88,1.88,0,0,1-.4.49,8.35,8.35,0,0,1-1.72,1.1,8.59,8.59,0,0,0-1.48.88s-.06.06,0,0l-.05.12-.15.39-.28.87c-.36,1.2-.71,2.43-1.12,3.65a24.52,24.52,0,0,1-1.51,3.68,7.69,7.69,0,0,1-1.3,1.84,3.49,3.49,0,0,1-1.21.82,2.65,2.65,0,0,1-.83.19l-.64,0a21.37,21.37,0,0,1-4.05-.65c-1.28-.3-2.53-.65-3.76-1.05a56.87,56.87,0,0,1-7.26-2.92,25.61,25.61,0,0,1-3.52-2.07,11.9,11.9,0,0,1-1.72-1.48c-.27-.33-.53-.66-.78-1l-.56-1a20.8,20.8,0,0,1-.88-1.93c-.22-.64-.47-1.28-.66-1.92-.4-1.28-.7-2.56-1-3.84a53.7,53.7,0,0,1-1-7.76,40.11,40.11,0,0,1,.32-7.86,17.67,17.67,0,0,1,1-4,7.72,7.72,0,0,1,2.87-3.28,16.34,16.34,0,0,1,7.54-2.42,22.15,22.15,0,0,1,7.67.67A18.38,18.38,0,0,1,204.55,290.06Zm0,0a16.89,16.89,0,0,0-4.93-5.65,17.82,17.82,0,0,0-6.86-2.92,20.08,20.08,0,0,0-7.38,0,14.57,14.57,0,0,0-6.5,2.83,5.52,5.52,0,0,0-1.82,2.53,16.8,16.8,0,0,0-.51,3.42,42.56,42.56,0,0,0,.32,7.27,58.4,58.4,0,0,0,1.3,7.21c.28,1.18.62,2.34,1,3.48.18.57.4,1.1.59,1.66s.44,1.06.7,1.5l.37.67c.13.16.26.33.38.5a8.08,8.08,0,0,0,1.14,1,23.62,23.62,0,0,0,3,1.85,59.69,59.69,0,0,0,6.64,3.1c1.15.43,2.29.91,3.45,1.28a19.5,19.5,0,0,0,3.35.88l.3,0h.07s0,0,0,0a.77.77,0,0,0,.37-.2,5.23,5.23,0,0,0,1-1.16,22.45,22.45,0,0,0,1.71-3.18c.52-1.13,1-2.29,1.48-3.46l.4-.9c.07-.15.15-.31.24-.47a2.66,2.66,0,0,1,.19-.29,1.35,1.35,0,0,1,.29-.29,10,10,0,0,1,1.86-.9,7.63,7.63,0,0,0,1.55-.79c.21-.16.29-.3.28-.34s-.06-.22-.1-.34l-.17-.44c-.45-1.18-.89-2.38-1.3-3.58a18.56,18.56,0,0,1-.93-3.71,4.34,4.34,0,0,1,0-1,1.18,1.18,0,0,1,.5-.89c.52-.28.6-1,.55-1.6a13.36,13.36,0,0,0-.94-3.64A37.14,37.14,0,0,0,204.55,290.06Z"/><path d="M205.36,291.71s4.23-8.17-3.32-14.3-21.62,4.45-23.2,4.84-11,3.39-6.25,17.32c4.27,12.64,4.81,14.07,4.81,14.07s2.59-8.4,4.24-9.58c2.58-1.84,8.19-1.36,8.19-1.36s-2.63-7.13,1.56-8.11S201.13,290.11,205.36,291.71Z"/><path class="cls-8" d="M185.41,298.6c-.36-1-1.53-5.18-5.14-2.74s2.17,10.37,2.8,10.48S188.46,306.83,185.41,298.6Z"/><path d="M185.41,298.6a4.77,4.77,0,0,0-2-2.86c-1-.5-2,.21-2.64,1a1.38,1.38,0,0,0-.22,1,5.4,5.4,0,0,0,.32,1.2,27,27,0,0,0,1.32,2.78c.5,1,1,2,1.55,2.87.06.11.13.21.17.29a.21.21,0,0,1,0,.09l-.08,0s-.11-.07-.24-.11l-.19-.05h-.1a1.51,1.51,0,0,0,.49.17,1.67,1.67,0,0,0,1.07-.06,2,2,0,0,0,.87-1,5,5,0,0,0,.31-1.69A10.16,10.16,0,0,0,185.41,298.6Zm0,0c.39,1.16.88,2.27,1.21,3.49A8.59,8.59,0,0,1,187,304a3.75,3.75,0,0,1-.61,2.25,3.88,3.88,0,0,1-2.18,1.45,4.2,4.2,0,0,1-1.34.16,2.16,2.16,0,0,1-.73-.27l-.27-.18-.3-.23c-.17-.14-.31-.26-.44-.39a12.34,12.34,0,0,1-2.44-3.24,10,10,0,0,1-1.17-4.06,5.89,5.89,0,0,1,.36-2.43,3.74,3.74,0,0,1,1.75-2,7.48,7.48,0,0,1,1-.39,5,5,0,0,1,1.1-.16,2.78,2.78,0,0,1,2,.7A7.77,7.77,0,0,1,185.41,298.6Z"/><path class="cls-2" d="M193.8,324.23c-5.95-1.6-11-8.05-11-8.05,1.62,1.59,10.88,4.69,10.88,4.69C193.67,321.81,193.72,323,193.8,324.23Z"/><polygon points="260.18 378.23 250.5 428.08 218.51 421.86 226.94 371.78 260.18 378.23"/><polygon class="cls-2" points="257.78 380.66 249.18 424.93 220.77 419.41 228.26 374.93 257.78 380.66"/><polygon points="248.77 380.05 249.38 376.94 237.89 374.71 236.84 377.74 248.77 380.05"/><path class="cls-2" d="M256.44,413.22a6.94,6.94,0,0,1-2.15.55s-1.34-.18-2.3-.25a6.48,6.48,0,0,0-.75,0,12.72,12.72,0,0,1-4.06,0c-1.76-.38-8.94-4-8.94-4l.85-4.43.21-4.27s10.47-3.56,12.15-3.39a4.29,4.29,0,0,1,.48.07,16.21,16.21,0,0,1,3.07,1.31c.27.09,2.85,1.13,3.1,1.92a2.72,2.72,0,0,1-.35,2.62,6.5,6.5,0,0,1,0,3.57,4,4,0,0,1-.65,3.5S257.46,412.48,256.44,413.22Z"/><path d="M256.44,413.22a10.53,10.53,0,0,1-1,.38,3.74,3.74,0,0,1-1.1.19h0l-2.11-.17a8.56,8.56,0,0,0-1,0l-1,.16a11.45,11.45,0,0,1-2.17.13,7.78,7.78,0,0,1-2.19-.4c-2.76-.85-5.44-1.8-8.12-2.82l-.87-.33.13-1.18c.16-1.5.28-3,.48-4.5l0,.25c0-1.43,0-2.85,0-4.28l0-1.29,1.3-.47c1.82-.66,3.65-1.26,5.51-1.77a41.8,41.8,0,0,1,5.8-1.24c.25,0,.57,0,.85-.07a3.93,3.93,0,0,1,1.12.1,6.71,6.71,0,0,1,1.68.62,11.9,11.9,0,0,1,1.31.84c.18.13.32.22.43.28a8.22,8.22,0,0,1,.74.38,14.7,14.7,0,0,1,1.31.83,7.71,7.71,0,0,1,.65.51,2.8,2.8,0,0,1,.67.84,1.72,1.72,0,0,1,.14.52c0,.14,0,.28,0,.43a3.8,3.8,0,0,1,0,.87,3,3,0,0,1-.75,1.58l.09-.45a8.92,8.92,0,0,1,.11,1.92,4.73,4.73,0,0,1-.43,1.88v-.15a4.8,4.8,0,0,1,0,1.92,3.71,3.71,0,0,1-.82,1.68v0a5.84,5.84,0,0,1,0,1.53A2,2,0,0,1,256.44,413.22Zm0,0a1.94,1.94,0,0,0,.64-1.33,4.65,4.65,0,0,0-.07-1.5v0a3.24,3.24,0,0,0,.67-1.66,4.09,4.09,0,0,0-.18-1.75l0-.06,0-.09a3.83,3.83,0,0,0,.13-1.68,8.12,8.12,0,0,0-.4-1.67l-.07-.19.16-.26a1.84,1.84,0,0,0,.28-1.05,2.48,2.48,0,0,0-.1-.55c0-.09-.06-.18-.1-.27s-.1-.24-.09-.16-.16-.11-.32-.19-.35-.18-.55-.27a12.84,12.84,0,0,0-1.25-.45,5.87,5.87,0,0,0-.59-.16,6.15,6.15,0,0,1-.87-.31,12.17,12.17,0,0,0-1.24-.47,3.77,3.77,0,0,0-1.06-.18c-.21,0-.21,0-.31.05s-.35.09-.56.16c-1.67.49-3.49,1.17-5.27,1.75s-3.6,1.19-5.4,1.75l1.33-1.76q-.16,2.13-.4,4.26l0,.24h0c-.37,1.46-.81,2.91-1.22,4.36l-.74-1.51,3.59,2.24c1.21.72,2.41,1.47,3.66,2.09a6.9,6.9,0,0,0,1.88.71,9.37,9.37,0,0,0,2.06.16l1.06,0a8.73,8.73,0,0,1,1.08.09l2.1.29h0a3.72,3.72,0,0,0,1.09-.17A10.53,10.53,0,0,0,256.44,413.22Z"/><path class="cls-2" d="M241.71,399.79a33.42,33.42,0,0,1-3.47,9.68s-8-.32-13.59-1.15c-13.28-2-18.84-3.79-22.17-6.93-6-5.65-22.68-38-22.68-38L196,353.11l11.37,25.44c1.24,2.51,3.51,6.24,5.14,9.56,2.14,4.36,11.66,8.08,15.91,9.26C228.37,397.37,236.52,399.79,241.71,399.79Z"/><path d="M241.71,399.79a37.6,37.6,0,0,1-1.09,5.07,25.4,25.4,0,0,1-1.94,4.87l-.13.24h-.32c-3.42,0-6.82-.12-10.24-.34-1.71-.11-3.44-.29-5.12-.52s-3.39-.45-5.08-.71a58.07,58.07,0,0,1-10.16-2.34,19.6,19.6,0,0,1-4.92-2.46,12.09,12.09,0,0,1-2.12-1.89,24.42,24.42,0,0,1-1.75-2.07,183.54,183.54,0,0,1-11-17.4q-5.05-8.91-9.78-18l-.85-1.63,1.56-1,16.2-10.17,1.9-1.19.88,2,7,16.29,3.47,8.17c1.08,2.64,2.62,5.18,4,7.85l1,2c.16.32.33.72.47,1a5,5,0,0,0,.47.77,13,13,0,0,0,3,2.76,42.82,42.82,0,0,0,7.62,4.11,67.69,67.69,0,0,0,8.33,2.81A46.19,46.19,0,0,0,241.71,399.79Zm0,0a41.4,41.4,0,0,1-8.88-.81,58,58,0,0,1-8.71-2.18,40.31,40.31,0,0,1-8.27-3.78,15.22,15.22,0,0,1-3.68-3.09,7.53,7.53,0,0,1-.75-1.09c-.23-.37-.35-.65-.54-1l-1.08-1.91-2.23-3.83-1.11-2c-.18-.32-.38-.69-.55-1l-.47-1-3.78-8L194.2,353.9l2.78.84L180.86,365l.71-2.6c3.1,6,6.28,12,9.58,17.92a194.56,194.56,0,0,0,10.35,17.29,21.56,21.56,0,0,0,1.46,1.89,9.08,9.08,0,0,0,1.6,1.57,16.62,16.62,0,0,0,4.08,2.24,64.8,64.8,0,0,0,9.57,2.7c3.3.69,6.63,1.34,9.95,1.82s6.72.8,10.09,1.11l-.45.25a26.22,26.22,0,0,0,2.3-4.53A37.34,37.34,0,0,0,241.71,399.79Z"/><path d="M204,366.94l-18.37,9.55s-3.64-7-4.71-9.34c-3.06-6.57-7.79-16.5-1.84-20.7,12.84-9.06,18.36,6,21.52,14.21A44,44,0,0,0,204,366.94Z"/><rect x="365.46" y="149.71" width="15.56" height="65.45"/><rect x="365.46" y="149.71" width="15.56" height="65.45" transform="translate(555.69 -190.81) rotate(90)"/><path class="cls-3" d="M145.42,205.6a37.14,37.14,0,1,0-31.77,67.14c.75.36,1.52.69,2.28,1a37.14,37.14,0,0,0,29.48-68.13Zm9.29,45.48a27.81,27.81,0,0,1-35.36,14q-.86-.34-1.71-.74a27.84,27.84,0,1,1,37.08-13.26Z"/><path d="M104.87,252.1l-8.23,4.31a37.19,37.19,0,0,1,5.85-42.71l6.77,6.37a27.89,27.89,0,0,0-4.39,32Z"/><path d="M119.34,265.08l-3.4,8.65c-.77-.3-1.53-.63-2.28-1a37,37,0,0,1-17-16.33l8.23-4.31a27.72,27.72,0,0,0,12.75,12.24Q118.47,264.74,119.34,265.08Z"/><path d="M126.54,276.19a36.94,36.94,0,0,1-10.61-2.47l3.4-8.65a27.69,27.69,0,0,0,8,1.85Z"/><polygon points="118.12 300.67 48.78 300.67 48.78 299.29 116.75 299.29 116.75 269.92 118.12 269.92 118.12 300.67"/><rect x="48.78" y="284.95" width="36.5" height="8.27"/><path class="cls-2" d="M577.32,364.71s-2.31-5-2.69-5.75-2.58-1.95-5.21-2.61-6-1.93-6.41-1.68a2.24,2.24,0,0,0-1.33,1.38,4.54,4.54,0,0,0-.27,2.29,2.77,2.77,0,0,0-.85,2.53,2.41,2.41,0,0,0-.42,2.65,2,2,0,0,0-.45,2.18,18.27,18.27,0,0,1,2.68,1.81c.63.65,5.05,2.77,9.61,4.16C572,371.67,576.72,371.52,577.32,364.71Z"/><path d="M577.32,364.71c-1.18-1.69-2.24-3.31-3.23-4.9l-.19-.3-.09-.14h0l-.39-.24a8.25,8.25,0,0,0-1.15-.52,17.71,17.71,0,0,0-2.58-.71c-1.85-.3-3.89-.86-5.65-1.27l-.62-.12-.21,0s-.07,0,0,0h.08l.17,0a1.4,1.4,0,0,0,.56-.22l-.08,0-.14.08-.19.1c-.08,0-.07.05-.06,0s.06,0,0,0a2.21,2.21,0,0,0-.13.33,2.17,2.17,0,0,0-.08.35,2.78,2.78,0,0,0,0,.43,2.47,2.47,0,0,0,0,.36l-.63,1.8c.07-.06,0,0,0,0l-.08.12a1.28,1.28,0,0,0-.1.21.31.31,0,0,0,0,.2L562,362.3l.06-.06v0l0,.07a.35.35,0,0,0,0,.11.49.49,0,0,0,0,.28l-.4,2.18c.07-.07,0,0,0,0l0,.07,0,.07a.42.42,0,0,0-.06-.28l-.76-.78c.54.32,1,.64,1.55,1,.26.18.52.36.79.57l.44.37.26.25,0,0a9.5,9.5,0,0,0,1.16.73c.47.27.95.53,1.44.78,2,1,4,1.94,6.07,2.81l-.4-.05a2.92,2.92,0,0,0,.82-.08,4.06,4.06,0,0,0,.9-.32,5,5,0,0,0,1.62-1.21,8.36,8.36,0,0,0,1.21-1.87l.45-1.08Zm0,0c0,.38,0,.79.06,1.22s0,.82-.1,1.24a7.71,7.71,0,0,1-.77,2.46,6.55,6.55,0,0,1-1.75,2.11,6.22,6.22,0,0,1-1.23.74,5.3,5.3,0,0,1-1.5.44h-.09l-.32-.06a41.13,41.13,0,0,1-6.78-2c-.55-.22-1.11-.45-1.66-.7a12.18,12.18,0,0,1-1.8-1l-.35-.3-.06,0-.24-.17-.62-.4c-.44-.27-.93-.55-1.38-.8l-.49-.27-.27-.51a3.55,3.55,0,0,1-.41-1.3,3.62,3.62,0,0,1,.1-1.29,4.35,4.35,0,0,1,.42-1,4.53,4.53,0,0,1,.27-.43,4,4,0,0,1,.37-.45l-.4,2.18a4.53,4.53,0,0,1-.34-2.49,4.24,4.24,0,0,1,.39-1.24,4.62,4.62,0,0,1,.32-.55l.19-.26a3.44,3.44,0,0,1,.29-.32l-.54,1.91a4.33,4.33,0,0,1,.16-2.55,4.79,4.79,0,0,1,.54-1,5.36,5.36,0,0,1,.34-.44,4.57,4.57,0,0,1,.45-.46l-.63,1.8a6.14,6.14,0,0,1-.06-1.09,6.61,6.61,0,0,1,.11-1,5.83,5.83,0,0,1,.3-1,5.65,5.65,0,0,1,.5-1,3.63,3.63,0,0,1,1.55-1.37l.51-.23a2.34,2.34,0,0,1,.39-.11l.19,0h.32a2.43,2.43,0,0,1,.37,0,5,5,0,0,1,.5.11l.79.24c1,.32,1.88.65,2.78,1l2.72,1a15.9,15.9,0,0,1,2.83,1.37,10.11,10.11,0,0,1,1.34,1,3.77,3.77,0,0,1,.67.74,3.19,3.19,0,0,1,.17.31l.06.18.12.36C576.28,361,576.86,362.89,577.32,364.71Z"/><path d="M572,371.67s5.65,1,7.56-.12-.31-6.86-.31-6.86l-3.58-2.16Z"/><path class="cls-2" d="M569.88,362.29a13.54,13.54,0,0,0,.5,3.53c.42.76-5.21,2-5.21,2S566.53,362.48,569.88,362.29Z"/><path class="cls-2" d="M563.72,354.91s6.17,3,5.81,4.05a1.74,1.74,0,0,1-1.13,1.22l2,2.39s.42,2.32-2.23,2.1c0,0,.62,2.13-1.92,1.61,0,0-.22,1.58-1.43,1.55s-5.1-2.13-5.1-2.13-.74-.86.34-2.22a2.36,2.36,0,0,1,.43-2.63,3.87,3.87,0,0,1,.91-3.17,3.31,3.31,0,0,1,1.69-3S563.46,354.78,563.72,354.91Z"/><path d="M563.72,354.91c1.34.66,2.69,1.3,4,2a8.17,8.17,0,0,1,2,1.3,1.45,1.45,0,0,1,.24.36,1.08,1.08,0,0,1,.07.31,1.32,1.32,0,0,1,0,.33,3,3,0,0,1-.24.67,2.44,2.44,0,0,1-.45.63,1.92,1.92,0,0,1-.78.5l.46-1.35,2.37,2.06.18.16.1.46a3.67,3.67,0,0,1,.06,1.52,2.92,2.92,0,0,1-.82,1.59,3.44,3.44,0,0,1-1.54.86,6.43,6.43,0,0,1-.73.13l-.66,0,1.88-2.3a3.59,3.59,0,0,1,.16.79,3.51,3.51,0,0,1,0,.83,2.85,2.85,0,0,1-1.13,1.92,3.45,3.45,0,0,1-1.8.61c-.22,0-.47,0-.67,0l-.59-.08,2.36-1.67a4.56,4.56,0,0,1-.22.88,4.38,4.38,0,0,1-.39.83,3.27,3.27,0,0,1-1.94,1.45,3.13,3.13,0,0,1-1.21.07l-.26,0-.18,0-.35-.1a10.24,10.24,0,0,1-1.1-.43A23,23,0,0,1,559,367l-.36-.25-.07-.09a1.81,1.81,0,0,1-.24-.39,2.47,2.47,0,0,1-.12-.31,2.7,2.7,0,0,1-.12-.61,2.79,2.79,0,0,1,.13-1.1,3.67,3.67,0,0,1,.95-1.48L559,364a3.25,3.25,0,0,1-.19-1,3.39,3.39,0,0,1,.11-1,3,3,0,0,1,1-1.58l-.18.58a4.57,4.57,0,0,1,.08-1,5.49,5.49,0,0,1,.26-.92,3.77,3.77,0,0,1,1.07-1.53l-.06.16a4.11,4.11,0,0,1,.55-1.81,3.17,3.17,0,0,1,1.35-1.24h0Zm0,0-.66-.26h0a2.75,2.75,0,0,0-.73.54,2.71,2.71,0,0,0-.5.74,3.28,3.28,0,0,0-.26,1.72v.07l-.07.09a2.72,2.72,0,0,0-.58,1.43,3.27,3.27,0,0,0,0,.77,3,3,0,0,0,.16.71l.07.17-.25.41a1.37,1.37,0,0,0-.22.92,1.57,1.57,0,0,0,.12.43c.05.12.16.32.21.33l.42.09-.54,1.1a1.05,1.05,0,0,0-.14.66c0,.07.06.1.08.1a0,0,0,0,0,0,0,.06.06,0,0,0,0,0s0,0-.07-.14l-.43-.34c1.19.42,2.43.87,3.54,1.22a7.82,7.82,0,0,0,.76.22l.13,0h0a.86.86,0,0,0-.24,0,.79.79,0,0,0-.43.27l0-.06s0-.15,0-.07l2.36-1.67.21,0,.13,0s0,0-.28.17a.81.81,0,0,0-.33.58s0,0,0,0,0-.1,0,0l1.88-2.3.25.05.17,0c.09,0,.09,0,.09.1s0,.11.1,0,.11-.27.16-.29l.29.62-1.59-2.71.46-1.35c-.05,0,.13,0,.2,0a1,1,0,0,0,.3-.2,1.44,1.44,0,0,0,.26-.33c0-.07,0,0,0,.05s0,0,0,0a.25.25,0,0,0,0-.13,6,6,0,0,0-1.47-1.5A22.71,22.71,0,0,0,563.72,354.91Z"/><path class="cls-2" d="M574.45,358.85s-4.71.1-7.25,1.28c-.58.27-1.08.63-1.05,1.27s1,1.4,3,1.46a17.22,17.22,0,0,1,4.65,1.07S575.94,363.38,574.45,358.85Z"/><path d="M574.45,358.85c-1.43.68-2.82,1.21-4.13,1.75-.65.27-1.27.54-1.81.83a3.37,3.37,0,0,0-.38.21,1.6,1.6,0,0,0-.3.2c-.16.11,0,.17.17-.21a.82.82,0,0,0,.07-.25.64.64,0,0,0,0-.14,1.47,1.47,0,0,0,0-.23,1.05,1.05,0,0,0-.19-.4c0-.07.05,0,.23.06a5.75,5.75,0,0,0,.65.14c.26,0,.48,0,1,.09a13.1,13.1,0,0,1,4.65,1.57l-.95-.05c-.18.06-.12.06-.15.08s0,0,0,0a.07.07,0,0,0,.06,0,.39.39,0,0,0,.22-.13,2.24,2.24,0,0,0,.46-.87,9.86,9.86,0,0,0,.26-1.29C574.32,359.79,574.44,359.49,574.45,358.85Zm0,0a5.08,5.08,0,0,1,.47.56c.17.26.27.44.42.67a5.73,5.73,0,0,1,.6,1.48,4,4,0,0,1,0,1.86,2.93,2.93,0,0,1-.49,1.06,3.06,3.06,0,0,1-.46.49,3.23,3.23,0,0,1-.3.22,1.78,1.78,0,0,1-.47.22l-.23.07-.72-.13a32.35,32.35,0,0,0-3.86-.53c-.19,0-.71,0-1.18-.06a6.22,6.22,0,0,1-1.48-.34,4.28,4.28,0,0,1-1.66-1,3.08,3.08,0,0,1-.77-1.31,2.56,2.56,0,0,1-.09-.49,2.68,2.68,0,0,1,0-.41,2.75,2.75,0,0,1,.17-.79,2.93,2.93,0,0,1,.83-1.19,3.62,3.62,0,0,1,.85-.55,4.92,4.92,0,0,1,.69-.26,5.71,5.71,0,0,1,.64-.18,11.18,11.18,0,0,1,2.44-.24A12.92,12.92,0,0,1,574.45,358.85Z"/><path d="M561.41,357.68s7,2.4,7.48,3,1.38-2,.94-2.46a53.21,53.21,0,0,0-6.53-3.55A2.32,2.32,0,0,0,561.41,357.68Z"/><path class="cls-2" d="M564.61,354.94s-11-2.25-11.19-.91.84,1.56,9.83,4.18C572,360.76,564.61,354.94,564.61,354.94Z"/><path d="M564.61,354.94c-2.75.3-5.42.27-8,.32-.63,0-1.26,0-1.79.1a1.3,1.3,0,0,0-.49.11.61.61,0,0,0,.2-.08,1.15,1.15,0,0,0,.33-.27,2.51,2.51,0,0,0,.19-.26,1.4,1.4,0,0,0,.16-.37,1.66,1.66,0,0,0,0-.17h0a.46.46,0,0,0,0-.19,1,1,0,0,0-.21-.51s-.08-.07-.05-.06l0,0c.13.06.36.16.62.25.53.19,1.14.39,1.74.57,1.22.39,2.48.78,3.73,1.22s2.53.93,3.66,1.38a16,16,0,0,0,1.63.54l.28.07s0,0,0,0-.06,0-.1.1a.73.73,0,0,0-.2.33.88.88,0,0,0,0,.17.39.39,0,0,0,0,.1c.05.09,0,0,0-.11a5.82,5.82,0,0,0-.78-1.59C565.37,356.09,565,355.53,564.61,354.94Zm0,0a11.09,11.09,0,0,1,1.87.92,6.31,6.31,0,0,1,1.74,1.46,1.92,1.92,0,0,1,.36.83,1.17,1.17,0,0,1,0,.35,1.25,1.25,0,0,1-.08.4,1.6,1.6,0,0,1-.5.71,2.16,2.16,0,0,1-.55.32,3.42,3.42,0,0,1-.44.13,4.75,4.75,0,0,1-.71.1,11,11,0,0,1-2.28-.11c-1.44-.21-2.67-.5-4-.79s-2.57-.65-3.87-1.05c-.65-.22-1.3-.43-2-.72a9.1,9.1,0,0,1-1.17-.61l-.37-.26a3.7,3.7,0,0,1-.42-.39,2.81,2.81,0,0,1-.68-1.37,3.59,3.59,0,0,1,0-.69l0-.25,0-.13v-.06s0-.15.06-.22a2.2,2.2,0,0,1,.46-.84,2.72,2.72,0,0,1,.52-.43,2.94,2.94,0,0,1,.66-.27,4.68,4.68,0,0,1,1.48-.12,14.11,14.11,0,0,1,2.17.29A28.51,28.51,0,0,1,564.61,354.94Z"/><path class="cls-9" d="M640,579.89s-3.5,5.23-8.4,6.36-9.73,2.93-9.77,6,14.18,4.94,19.79,1.82c8.37-4.66,9.22-3.25,10.15-5.58s-1.12-8.55-1.06-9.29C650.77,578.3,640,579.89,640,579.89Z"/><path class="cls-2" d="M640.53,577.31a22.38,22.38,0,0,0-.54,2.58c.09.05,11,1.36,10.72-.67-.27-1.64-.65-3.43-.65-3.43Z"/><path d="M676.85,579.54s-2.49,5-6.75,6.71c-4.55,1.82-8.2,3.91-8.12,6.93s11.13,6.07,19.17.28c5.08-3.66,6.69-3.67,7.5-6s-1.41-8.28-1.38-9C687.3,577.58,676.85,579.54,676.85,579.54Z"/><path class="cls-2" d="M676.72,576.94a24.47,24.47,0,0,0,.12,2.6c.09,0,10.68.92,10.41-1.06a16.3,16.3,0,0,0-1-3.48Z"/><path class="cls-2" d="M637.9,424.13s-9.84,43.38-12.08,56.6c-1.91,11.25-3.44,23-2.52,31.08,1.13,10.05,15.36,62.15,14.77,65.1s17,1.15,17,1.15-12.9-58.8-10.74-69.61c1.6-8,15.63-61.23,17.78-58.5s4.82,50.22,6.41,58.11S675,578.24,675,578.24s10.93,1.61,13.85-.86c0,0,1.33-53.19.31-68-.39-5.63,6.6-67.54-2.36-92.47C682,403.77,637.9,424.13,637.9,424.13Z"/><path d="M637.9,424.13l-4.42,21.25q-2.21,10.62-4.34,21.26c-1.4,7.1-2.75,14.18-3.69,21.34s-1.73,14.35-1.34,21.44a36.17,36.17,0,0,0,.69,5.24c.34,1.75.73,3.51,1.13,5.27.8,3.51,1.65,7,2.52,10.53l5.31,21c1.77,7,3.59,14,5.14,21.14.19.9.37,1.79.51,2.75a7,7,0,0,1,.09,1.79.79.79,0,0,0,0-.4.56.56,0,0,0-.09-.17.18.18,0,0,0,0-.08c-.07-.07,0,0,.1,0a8.54,8.54,0,0,0,2.19.41c.84.07,1.71.1,2.59.11a103,103,0,0,0,10.65-.6l-1.39,1.92q-3.59-16-6.56-32c-1-5.36-1.93-10.74-2.75-16.15s-1.58-10.82-1.86-16.41a35.79,35.79,0,0,1,0-4.31,34.2,34.2,0,0,1,.82-4.26c.63-2.67,1.29-5.32,2-8q2-7.93,4.17-15.82c1.44-5.26,2.92-10.51,4.49-15.75.79-2.62,1.6-5.23,2.46-7.84.43-1.31.88-2.61,1.37-3.92a33.77,33.77,0,0,1,1.71-4c.11-.19.2-.36.34-.57a3.61,3.61,0,0,1,.23-.33l.15-.18a1.83,1.83,0,0,1,.2-.22l.28-.24a1.6,1.6,0,0,1,.24-.16l.34-.16a2,2,0,0,1,.38-.12,2.38,2.38,0,0,1,.66,0,2.15,2.15,0,0,1,.62.16,2.51,2.51,0,0,1,.83.63,1.34,1.34,0,0,1,.1.14l.15.25a5.74,5.74,0,0,1,.26.51,14.81,14.81,0,0,1,.61,2.32c.28,1.42.48,2.78.66,4.15.37,2.74.66,5.45.94,8.17q.82,8.15,1.48,16.29l1.36,16.26c.25,2.7.49,5.4.81,8.06q.12,1,.27,2l.33,2c.25,1.44.36,2.76.55,4.14,1.2,10.88,2.09,21.72,3,32.57l2.61,32.56-1.51-1.62c1.09.15,2.25.28,3.38.37s2.27.14,3.39.15a25.48,25.48,0,0,0,3.27-.19,5.8,5.8,0,0,0,2.42-.76l-.62,1.29q.35-13.32.58-26.65c.18-8.88.33-17.77.35-26.64,0-4.43,0-8.88-.21-13.26a29.67,29.67,0,0,1,0-3.47c.05-1.13.13-2.25.21-3.36l.48-6.66c.65-8.86,1.23-17.72,1.56-26.59s.41-17.74.07-26.59c-.18-4.42-.48-8.84-1-13.22A72,72,0,0,0,686.42,418l-.24-.78a6.75,6.75,0,0,0-.29-.68,5,5,0,0,0-.85-1.2,6.78,6.78,0,0,0-2.6-1.55,18.29,18.29,0,0,0-6.39-.71,63.46,63.46,0,0,0-13,2.22A184.79,184.79,0,0,0,637.9,424.13Zm0,0c4-1.89,8.12-3.62,12.27-5.24s8.35-3.1,12.64-4.32A64.28,64.28,0,0,1,676,412a19.32,19.32,0,0,1,6.81.62,8,8,0,0,1,3.11,1.78,6.31,6.31,0,0,1,1.11,1.48,8,8,0,0,1,.38.84l.27.8a73.38,73.38,0,0,1,3,13.12c.64,4.43,1,8.89,1.32,13.34.54,8.92.52,17.84.32,26.75s-.67,17.81-1.21,26.69l-.39,6.65c-.06,1.11-.12,2.21-.16,3.3a26.24,26.24,0,0,0,.06,3.2c.26,4.5.34,8.95.39,13.4.21,17.82,0,35.6-.44,53.4l0,.87-.6.41a8.13,8.13,0,0,1-1.11.7,10.59,10.59,0,0,1-1.06.42c-.34.09-.68.19-1,.27l-1,.17a28.81,28.81,0,0,1-3.77.24c-1.23,0-2.45-.06-3.66-.14s-2.39-.21-3.64-.38l-1.39-.19-.12-1.43-2.75-32.52c-1-10.83-1.92-21.69-3.15-32.44-.18-1.31-.31-2.71-.54-3.95l-.15-1-.19-1.08q-.17-1.06-.29-2.09c-.34-2.75-.6-5.46-.86-8.18l-1.44-16.28c-.48-5.42-.91-10.84-1.45-16.23-.26-2.7-.55-5.39-.89-8.05-.17-1.33-.36-2.66-.6-3.91a12.49,12.49,0,0,0-.4-1.63.09.09,0,0,0,0,.06l0,0s0,0,0,0a1.45,1.45,0,0,0,.63.48,1.76,1.76,0,0,0,.49.14,1.55,1.55,0,0,0,.54,0l.26-.07.22-.11.14-.09.09-.07,0,0v0a.59.59,0,0,0-.06.09c-.05.07-.12.2-.18.3a30.94,30.94,0,0,0-1.5,3.49c-.47,1.24-.91,2.51-1.34,3.79-.86,2.55-1.67,5.13-2.46,7.73-1.58,5.18-3.07,10.4-4.53,15.64s-2.86,10.48-4.22,15.74c-.68,2.63-1.35,5.26-2,7.89a20.17,20.17,0,0,0-.79,7.59c.24,5.29,1,10.68,1.76,16s1.7,10.71,2.67,16.05,2,10.68,3,16,2.1,10.67,3.22,16l.37,1.76-1.76.15a105.8,105.8,0,0,1-11,.47c-.93,0-1.87-.06-2.83-.16a10.73,10.73,0,0,1-3.1-.69,3.13,3.13,0,0,1-1-.69,4,4,0,0,1-.28-.33,2.55,2.55,0,0,1-.23-.48,2.14,2.14,0,0,1-.1-1.06c0-.06,0-.5-.09-.91-.11-.83-.28-1.72-.45-2.59-1.43-7-3.16-14.06-4.83-21.09l-5-21.11c-.82-3.53-1.63-7.06-2.39-10.61-.38-1.77-.75-3.55-1.07-5.35a38.31,38.31,0,0,1-.65-5.51,77.3,77.3,0,0,1,.39-11c.35-3.63.85-7.23,1.41-10.81,1.1-7.17,2.61-14.27,4.16-21.33s3.17-14.12,4.8-21.17Z"/><path d="M573.67,373.81s34.07,7.55,40.85,5.89c3.13-.77,7.26-5.1,11.19-10.18,1.29-1.67,2.56-3.43,3.77-5.17h0c4.81-6.95,8.59-13.61,8.59-13.61s14.23-16.67,2.81-24.11c0,0-4.14-1.55-7.95,2.53s-8.28,12.61-9.27,14.79-15,22.33-15.7,22.78-6.83-1.15-11.73-1.56c-8-.67-19.95-3.78-19.95-3.78Z"/><path class="cls-2" d="M651.56,322.89s-14.65,3-16.38,4.57-5.21,17.68-5.41,22.15,1.77,23.13,3.65,30.08,1.54,41.18.35,50.82c0,0,29.49,8.38,58.48,4.6,0,0-4.86-36-3.7-45.54,1.49-12.2,5.06-40.31,5.06-40.31s-2.57-19.58-5.15-21.77-20.37-4.6-20.37-4.6Z"/><path d="M651.56,322.89q-3.71.79-7.39,1.7c-2.45.62-4.9,1.24-7.27,2.1a6.93,6.93,0,0,0-1.68.82,5.4,5.4,0,0,0-.91,1.62,34,34,0,0,0-1.18,3.59c-.66,2.43-1.21,4.9-1.7,7.38s-.92,5-1.23,7.46a33.78,33.78,0,0,0,.1,7.51c.48,5,1.13,10,1.93,15,.41,2.48.85,5,1.41,7.4.13.61.3,1.2.46,1.8s.29,1.29.44,1.93c.19,1.28.38,2.55.49,3.82.5,5.08.7,10.14.85,15.21s.18,10.13.15,15.2-.1,10.12-.59,15.3l-1.22-1.85c4.64,1.18,9.47,2.13,14.26,2.89s9.64,1.36,14.48,1.76,9.7.57,14.54.55a127.25,127.25,0,0,0,14.48-.88l-1.67,2.18c-.94-7.17-1.68-14.34-2.33-21.53-.33-3.6-.61-7.2-.79-10.82s-.34-7.24-.2-10.94c0-.92.14-1.9.23-2.82l.39-2.67.77-5.35,1.54-10.69L693,349.18v.16c-.42-3.58-.92-7.17-1.53-10.74-.31-1.78-.64-3.56-1.05-5.31a22,22,0,0,0-1.69-5.06c-.38-.75-1.27-1-2.08-1.39s-1.7-.57-2.57-.81c-1.74-.47-3.51-.86-5.28-1.23-3.55-.73-7.12-1.32-10.71-1.84h0Zm0,0,16.53-.06h0q5.39.74,10.75,1.69c1.78.33,3.56.68,5.33,1.12.88.23,1.76.47,2.63.77a10.23,10.23,0,0,1,1.28.56,4.4,4.4,0,0,1,.61.41,3.29,3.29,0,0,1,.46.58,22.34,22.34,0,0,1,1.87,5.18c.47,1.76.88,3.53,1.25,5.31.74,3.56,1.38,7.13,1.93,10.73v.16l-2.3,21.47-1.15,10.74-.57,5.37-.29,2.68c0,.87-.12,1.69-.11,2.57,0,3.5.27,7.08.59,10.63s.7,7.13,1.09,10.69c.79,7.13,1.75,14.26,2.69,21.36l.26,2-1.93.22a131.15,131.15,0,0,1-14.94,1,146.75,146.75,0,0,1-14.92-.65c-5-.46-9.88-1.08-14.77-2s-9.71-1.94-14.57-3.29l-1.4-.39.18-1.46c.59-4.86.86-9.94,1.09-15s.35-10.07.4-15.11,0-10.08-.29-15.08c-.07-1.25-.2-2.48-.34-3.71-.11-.59-.2-1.16-.34-1.78s-.3-1.26-.41-1.89c-.49-2.51-.84-5-1.16-7.54-.62-5-1.1-10.07-1.39-15.13a36.41,36.41,0,0,1,.08-7.62c.36-2.51.85-5,1.39-7.47s1.15-4.93,1.85-7.36a34.14,34.14,0,0,1,1.21-3.6,5.46,5.46,0,0,1,1-1.66,7,7,0,0,1,1.72-.83c2.39-.85,4.85-1.44,7.3-2S649.08,323.4,651.56,322.89Z"/><path class="cls-2" d="M657.61,277.61S640,271.09,641.1,294.5s5.23,25.79,16.82,22.52,12.56-18,14.07-25.15S663.37,278.63,657.61,277.61Z"/><path d="M657.61,277.61a15.09,15.09,0,0,0-7.21-.59,9.39,9.39,0,0,0-6,3.67,10.55,10.55,0,0,0-1.59,3.16,18.12,18.12,0,0,0-.77,3.47,33.37,33.37,0,0,0,0,7.15c.25,2.42.55,4.83.91,7.21a61.17,61.17,0,0,0,1.39,7,14.87,14.87,0,0,0,2.64,5.83,4.66,4.66,0,0,0,2.11,1.42,7.79,7.79,0,0,0,2.86.26,21.17,21.17,0,0,0,3.29-.52l1.7-.41c.6-.13,1-.34,1.55-.5a12.86,12.86,0,0,0,5.24-3.54c3-3.25,4.64-7.86,5.89-12.48.62-2.33,1.14-4.73,1.74-7.1a7.06,7.06,0,0,0-.07-3.36,9.66,9.66,0,0,0-1.59-3.14,19,19,0,0,0-5.39-4.78A20.84,20.84,0,0,0,657.61,277.61Zm0,0a23,23,0,0,1,6.81,2.61,20.23,20.23,0,0,1,5.76,4.56,11.57,11.57,0,0,1,2,3.21,8.11,8.11,0,0,1,.44,3.86c-.35,2.41-.58,4.83-1,7.28a46.49,46.49,0,0,1-1.63,7.34,22.36,22.36,0,0,1-3.58,6.95,16,16,0,0,1-6.49,4.92c-.63.23-1.32.53-1.91.68s-1.22.34-1.84.49a24.32,24.32,0,0,1-3.92.64,11.67,11.67,0,0,1-4.38-.49,8.49,8.49,0,0,1-3.82-2.71,13,13,0,0,1-2-3.74,25.36,25.36,0,0,1-1-3.79,80.2,80.2,0,0,1-.94-14.87,36.34,36.34,0,0,1,.77-7.45,15.69,15.69,0,0,1,3.11-6.77,9.67,9.67,0,0,1,2.88-2.35,11,11,0,0,1,3.51-1.12A16.18,16.18,0,0,1,657.61,277.61Z"/><path class="cls-2" d="M649.25,326.06s3.63,2.4,17.37-3.66a62.25,62.25,0,0,1,2.31-18.23c2.7-8.8-18.45,11.74-18.45,11.74.22.16.26,1,.14,2.26a24.89,24.89,0,0,1-.68,3.64C649.17,324.76,649.25,323.49,649.25,326.06Z"/><path d="M649.25,326.06a5.71,5.71,0,0,0,2.21.15,15,15,0,0,0,2.18-.34,34.62,34.62,0,0,0,4.23-1.29c1.38-.52,2.76-1.07,4.1-1.7s2.69-1.24,4-1.9l-.93,1.49a55.31,55.31,0,0,1,.35-11.31,47.49,47.49,0,0,1,1.06-5.6c.11-.46.25-.92.38-1.39l.19-.66a4.5,4.5,0,0,0,.11-.44c0-.1,0-.22,0-.14a.42.42,0,0,1,0,.09c0,.06,0,.07.07.18a1.41,1.41,0,0,0,.44.53,1.69,1.69,0,0,0,.31.17,1.93,1.93,0,0,0,.23.06h.18a1.48,1.48,0,0,0-.22.06,11.31,11.31,0,0,0-2,1.05c-.72.45-1.44,1-2.16,1.47-1.44,1-2.87,2.14-4.29,3.26-2.86,2.23-5.67,4.57-8.49,6.88l-.13-1.65a1.32,1.32,0,0,1,.45.58,1.67,1.67,0,0,1,.1.34,3,3,0,0,1,.05.47,5.52,5.52,0,0,1,0,.76c-.05.48-.13.93-.22,1.37a24.54,24.54,0,0,1-.7,2.59c-.29.84-.62,1.65-1,2.46a3.62,3.62,0,0,0-.36,1.17Zm0,0c-.06-.42-.13-.87-.18-1.3a3.82,3.82,0,0,1,.07-1.36c.16-.85.3-1.7.39-2.54a24,24,0,0,0,.2-2.51c0-.41,0-.82,0-1.21,0-.19,0-.38-.06-.53a.69.69,0,0,0,0-.16s0,0,0,0a.69.69,0,0,0,.26.32l-.13-1.66c2.47-2.77,5.05-5.39,7.76-7.94,1.36-1.26,2.76-2.49,4.25-3.67.74-.59,1.51-1.16,2.32-1.71a13.63,13.63,0,0,1,2.82-1.53A5,5,0,0,1,668,300a2.9,2.9,0,0,1,2,.49,2.61,2.61,0,0,1,.86,1.06,2.49,2.49,0,0,1,.17.5,2.33,2.33,0,0,1,.08.43,4.52,4.52,0,0,1,0,1.23,8.29,8.29,0,0,1-.21.89l-.19.66c-.12.42-.25.84-.36,1.26-.44,1.7-.8,3.43-1.1,5.18a83,83,0,0,0-1.06,10.61l0,1.17-.88.32c-1.45.52-2.88,1.08-4.36,1.5s-3,.82-4.49,1.13a29.55,29.55,0,0,1-4.63.5A8.67,8.67,0,0,1,649.25,326.06Z"/><path d="M669.54,303.48s0-6.25-2.55-6.83A3.57,3.57,0,0,1,664,294l-1.49.35s.27-1.1-2.21-2.55-17.31-.18-19.17-2.31.84-14.81,4.88-16.05,13.45-1.13,22,1.28a10,10,0,0,1,7,9.32C675.42,289,671.65,300.09,669.54,303.48Z"/><path d="M649.95,321.81c13.66-2.3,15.7-10.06,15.73-10.18-5.31,6.85-15,6.54-15,6.54A24.89,24.89,0,0,1,649.95,321.81Z"/><path d="M650.55,329.14s-2.49,3.67-4,13.09-1.25,25.64-1.25,25.64l3.46.42s5.23-33.08,4.33-38.85Z"/><path class="cls-2" d="M664,294c.78-2.06,5.17-1.8,4.72,1.47s-4.08,8.31-5.54,7.36S663,296.84,664,294Z"/><path d="M664,294a2.86,2.86,0,0,1,2.79-1.54,3.08,3.08,0,0,1,1.82.6,3.13,3.13,0,0,1,1.13,1.87,8.57,8.57,0,0,1-.28,3.87,10.22,10.22,0,0,1-1.65,3.29,8.62,8.62,0,0,1-1.36,1.42,5.64,5.64,0,0,1-.94.64,3.8,3.8,0,0,1-1.48.49,2.55,2.55,0,0,1-1.19-.15,2.43,2.43,0,0,1-.58-.32,4.25,4.25,0,0,1-.37-.37,2.72,2.72,0,0,1-.6-1.45,5.71,5.71,0,0,1,.23-2,31.2,31.2,0,0,1,1.26-3.24C663.25,296,663.66,295,664,294Zm0,0a11.61,11.61,0,0,0-.48,6.39,3.32,3.32,0,0,0,.48,1.2c.09.11.2.12.15,0a.23.23,0,0,0-.07-.1.78.78,0,0,0-.21-.15,1.21,1.21,0,0,0-.38-.11c-.14,0-.08-.07,0-.16l.33-.38c.25-.3.54-.65.81-1,.56-.73,1.14-1.52,1.7-2.31.28-.4.56-.8.81-1.2a6.93,6.93,0,0,0,.61-1.18,1.49,1.49,0,0,0,0-1.11,1.77,1.77,0,0,0-1-.87A2.12,2.12,0,0,0,664,294Z"/><path d="M635,327.44s-8.32,11-5.24,39.82c5.57,52.05-9,135.61-9,135.61l15.05,4.71S650.16,400.76,646.5,362c-1.67-17.67-6.62-23.54,1.19-38.26C647.69,323.73,640.08,324.12,635,327.44Z"/><path d="M672.14,323.49s-23.82,24.06-25.69,42.3-4.9,141.78-4.9,141.78l56.71-3.3s-5.21-65.22-6.48-73.37-3.9-55,1.84-76.74c3.08-11.68-.59-26.49-7.63-28.11S672.14,323.49,672.14,323.49Z"/><path d="M680.19,326.61S671,329.14,676.06,346c4,13.19,4.49,16,4.49,16l21.17-5.29s-6.21-29-16.34-30.53C685.38,326.18,682.16,325.72,680.19,326.61Z"/><polygon points="610.78 415.73 652.28 458.68 679.84 432.04 639.42 388.06 610.78 415.73"/><polygon class="cls-2" points="614.71 416.59 651.56 454.73 676.04 431.07 640.14 392.01 614.71 416.59"/><polygon points="623.2 410.21 620.61 407.54 630.51 397.98 633.48 400.28 623.2 410.21"/><path d="M666.62,319.8s-7.19,4.33-14.3,5.31l3.78,6,12-8.25Z"/><path d="M649.95,321.81s.76,2.48,2.38,3.29l-3.55,5,.13-6.57Z"/><path d="M652.32,325.11,649.51,329s1.78,2.25,5.61.55Z"/><path d="M625.71,369.5h0c1.29-1.67,2.56-3.43,3.77-5.17h0s-.45-12.69-.06-16.34C629.43,348,625.28,361.66,625.71,369.5Z"/><path class="cls-10" d="M684.17,361.09s2.77,18,2.57,19.15S699.26,376.63,684.17,361.09Z"/><rect class="cls-2" x="634.21" y="354.65" width="6.69" height="10.21" transform="translate(1275.11 719.51) rotate(180)"/><path d="M663.93,403.59a3.77,3.77,0,0,1-1.63,1.62c-1.76.71-4.56-.41-5.65,2.1s5.92,8.42,7.67,8.72,4.24-2.57,5.87-8.11S663.93,403.59,663.93,403.59Z"/><path class="cls-2" d="M657.14,406.52a76.79,76.79,0,0,0-6,6.12c-2.62,3-5.13,7-4.68,7.81,1,1.69,3.43-2.09,6.23-4.89a26.41,26.41,0,0,1,2.15-2.13s0-.27-2.24,3.1c-2.42,3.63-4.52,7.62-4,8.5.28.43,1.4,1.48,1.94-.25-.48.81-.57.61-.25.86,1.67,1.27,6.06-3.48,7.81-5.36-1.33,1.46-2.15,2.68-.64,2.8,1.72.14,7.63-6.87,10-9.17C670.06,411.41,657.14,406.52,657.14,406.52Z"/><path d="M657.14,406.52c-1.62,1.87-3.19,3.77-4.68,5.71-.75,1-1.46,1.94-2.1,3a33,33,0,0,0-1.82,3.07,11.17,11.17,0,0,0-.67,1.52c-.07.2-.13.52-.09.42s0,0,0-.05a.68.68,0,0,0-.06-.27l-.07-.12s0,0,0,0l0,0a.66.66,0,0,0-.33-.21c-.46-.06-.34,0-.26-.09a6.05,6.05,0,0,0,.49-.44c.36-.37.74-.82,1.12-1.28.77-.92,1.52-1.92,2.4-2.88l1.29-1.37.64-.67.33-.34.17-.17.1-.1.1-.09,0,0c0,.39-.33-.77,2.14-.15,1.32,1.38.72,1.42.73,2.12-.33.7-.37.57-.34.58l-.08.08L653,413.44a1.79,1.79,0,0,0,.48,1.22,1.9,1.9,0,0,0,1,.55,1.78,1.78,0,0,0,.85-.07l.2-.08.06,0,.12-.07.19-.14.08-.07s0,0,0,0l-.1.14-.26.37-.53.8-1.06,1.67c-.69,1.1-1.38,2.21-2,3.33a18.57,18.57,0,0,0-1.48,3.25c-.07.18-.07.49-.07.19a1.49,1.49,0,0,0-.15-.46l-.1-.14s0,0,0,0a.87.87,0,0,0-.38-.14,1.4,1.4,0,0,0-1,.23c-.43.36-.26.34-.25.21l3.61,1.6-.24.38-.22.31,0,0a1.45,1.45,0,0,0,.11-.2,1.73,1.73,0,0,0,.11-.29l0-.08,0-.17a1.86,1.86,0,0,0,0-.34,2,2,0,0,0-.42-1.12c-.33-.36-.29-.27-.31-.3l.08.06.06,0,0,0-.06-.05a.48.48,0,0,0-.15-.07c-.4-.12-.34,0-.1-.11a7.9,7.9,0,0,0,1.8-1.18c1.29-1.07,2.53-2.33,3.8-3.62l2.72,2.5a9.72,9.72,0,0,0-1,1.18c0,.06-.07.12,0,0a.62.62,0,0,0,0-.07.59.59,0,0,0,0-.16,1.61,1.61,0,0,0,0-.26,2,2,0,0,0-.11-.32,1.28,1.28,0,0,0-.43-.49.8.8,0,0,0-.24-.12l-.1,0a.36.36,0,0,0-.2,0l0,0a.65.65,0,0,0,.21-.1,5.45,5.45,0,0,0,.64-.42c.45-.33.94-.72,1.41-1.12,1.9-1.63,3.69-3.51,5.61-5.3l.73-.68.69-.63c.06-.06,0,.14,0,.1a.79.79,0,0,0-.19-.42,11.34,11.34,0,0,0-2.69-2.33C661.73,409,659.44,407.75,657.14,406.52Zm0,0a43.65,43.65,0,0,1,7.45,2.63c.6.29,1.2.6,1.8,1a7.66,7.66,0,0,1,1.75,1.35,3,3,0,0,1,.73,1.27,2.13,2.13,0,0,1,0,1,3.83,3.83,0,0,1-.2.49,3.42,3.42,0,0,1-.27.38l-1.29,1.5c-1.65,2-3.35,4-5.22,5.94a20.08,20.08,0,0,1-1.54,1.44,8.81,8.81,0,0,1-1,.7,3.72,3.72,0,0,1-.65.35,2.88,2.88,0,0,1-.41.16,4.17,4.17,0,0,1-.68.11,2,2,0,0,1-.55,0l-.23,0-.29-.08a2.6,2.6,0,0,1-.68-.32,2.24,2.24,0,0,1-.74-.85,2.41,2.41,0,0,1-.13-1.76,3.92,3.92,0,0,1,.36-.84,12.08,12.08,0,0,1,1.4-1.88l2.72,2.5a37.17,37.17,0,0,1-4,4.09,11.32,11.32,0,0,1-2.79,1.83,3.79,3.79,0,0,1-2.77.17,4.48,4.48,0,0,1-.46-.22l-.22-.13-.1-.07-.06,0a2,2,0,0,1-.44-.41,2,2,0,0,1-.44-1.56l0-.18,0-.09a2.25,2.25,0,0,1,.12-.33,2.38,2.38,0,0,1,.15-.27l.06-.1.17-.25.13-.2,9.46-15.44-5.85,17a4.78,4.78,0,0,1-.35.84,3.08,3.08,0,0,1-.92,1.05,2.67,2.67,0,0,1-1.92.44,3,3,0,0,1-1.29-.54,4,4,0,0,1-.75-.69l-.17-.21a2,2,0,0,1-.21-.34,2.64,2.64,0,0,1-.28-.94,4.39,4.39,0,0,1,.22-1.79,21.62,21.62,0,0,1,1.89-4c.7-1.22,1.43-2.39,2.21-3.53l1.19-1.67.63-.84.35-.44.21-.25.16-.18.16-.16a1.73,1.73,0,0,1,.24-.18l.13-.07.07,0,.2-.08a1.84,1.84,0,0,1,.87-.08,1.91,1.91,0,0,1,1,.56,1.79,1.79,0,0,1,.48,1.22l-3.11-1.23,0,0s0-.13-.33.57c0,.69-.59.73.73,2.11,2.47.62,2.14-.53,2.13-.14h0l-.07.06-.16.15-.33.31-.67.63-1.31,1.25c-.83.82-1.66,1.7-2.54,2.61-.45.45-.9.91-1.44,1.38a7.8,7.8,0,0,1-1,.7,3.12,3.12,0,0,1-1.29.43,3.09,3.09,0,0,1-.71-.08,2.12,2.12,0,0,1-1.06-.73l-.16-.22-.08-.12a2.36,2.36,0,0,1-.1-.23,2.31,2.31,0,0,1-.12-.49,2.08,2.08,0,0,1,0-.28,3.69,3.69,0,0,1,.39-1.35,13.62,13.62,0,0,1,1-1.75,33.47,33.47,0,0,1,4.94-5.75A55.73,55.73,0,0,1,657.14,406.52Z"/><path d="M679.09,327.74c-1.92.74-2.65,4.15-1.86,14a33.29,33.29,0,0,0,5.56,16.71c1.3,2.29,8.43,16.37,7.15,18.23s-13.4,13.81-14.1,14.78-14.23,13.22-14.23,13.22l6.89,9.62s29.21-22.82,31.49-25.09,9.09-7.06,6.57-15-7.16-27-8-28.5S691.79,322.82,679.09,327.74Z"/></g></g></svg>