<svg id="Layer_1" data-name="Layer 1" xmlns="http://www.w3.org/2000/svg" viewBox="0 0 272 272"><defs><style>.cls-1{fill:#d50000;}.cls-2{fill:#fff;}</style></defs><title>logo</title><polygon class="cls-1" points="272 104 168 104 168 0 104 0 104 104 0 104 0 168 104 168 104 272 168 272 168 168 272 168 272 104"/><path class="cls-2" d="M195,136h0a13.88,13.88,0,0,1-13.88,13.88H163.77a13.88,13.88,0,0,0-13.88,13.88v17.35A13.88,13.88,0,0,1,136,195h0a13.88,13.88,0,0,1-13.88-13.88V163.77a13.88,13.88,0,0,0-13.88-13.88H90.88A13.88,13.88,0,0,1,77,136h0a13.88,13.88,0,0,1,13.88-13.88h17.35a13.88,13.88,0,0,0,13.88-13.88V90.88A13.88,13.88,0,0,1,136,77h0a13.88,13.88,0,0,1,13.88,13.88v17.35a13.88,13.88,0,0,0,13.88,13.88h17.35A13.88,13.88,0,0,1,195,136Z"/></svg>